<svg width="250" height="76" viewBox="0 0 250 76" fill="none" xmlns="http://www.w3.org/2000/svg">
<path d="M27.0851 51.2635C27.0851 60.5234 20.1251 66.9458 10.1973 66.9458H3.23379C2.80547 66.9594 2.37894 66.8846 1.9805 66.7261C1.58207 66.5676 1.22018 66.3287 0.917164 66.0243C0.614149 65.7198 0.376434 65.3562 0.218685 64.9559C0.0609354 64.5556 -0.013503 64.1271 -3.79137e-05 63.6967V39.0397C-0.013503 38.6093 0.0609354 38.1808 0.218685 37.7805C0.376434 37.3802 0.614149 37.0166 0.917164 36.7121C1.22018 36.4077 1.58207 36.1688 1.9805 36.0103C2.37894 35.8519 2.80547 35.7771 3.23379 35.7906H10.2045C20.2653 35.74 27.0851 41.9855 27.0851 51.2635ZM6.34904 41.5162V61.1696H10.1578C16.4098 61.1696 20.5958 57.2491 20.5958 51.2491C20.5958 45.2491 16.5967 41.5018 10.1757 41.5018L6.34904 41.5162Z" fill="black"/>
<path d="M44.9502 46.1445C44.9502 47.8448 43.7752 49.0326 41.9894 49.2131C38.6011 49.4513 36.5351 51.6715 36.5351 55.26V64.2347C36.5512 64.6587 36.4813 65.0816 36.3297 65.4776C36.1781 65.8737 35.9479 66.2346 35.6532 66.5385C35.3585 66.8424 35.0053 67.0829 34.6152 67.2454C34.2251 67.4079 33.8062 67.489 33.3839 67.4838C32.9591 67.4903 32.5374 67.4104 32.1441 67.249C31.7509 67.0875 31.3942 66.8478 31.0954 66.5443C30.7967 66.2408 30.5622 65.8798 30.4059 65.4829C30.2496 65.086 30.1748 64.6614 30.186 64.2347V46.2383C30.1728 45.8168 30.2449 45.3969 30.398 45.0042C30.5511 44.6115 30.782 44.2541 31.0766 43.9537C31.3712 43.6533 31.7235 43.4161 32.1121 43.2565C32.5007 43.0969 32.9174 43.0183 33.3372 43.0253C34.118 43.0205 34.8708 43.3177 35.4394 43.8554C36.008 44.3931 36.3489 45.13 36.3913 45.9134C37.0974 45.0901 37.9705 44.428 38.9522 43.9716C39.9338 43.5152 41.0012 43.2751 42.0829 43.2672C42.4648 43.2453 42.8471 43.3046 43.2046 43.4414C43.5622 43.5782 43.8869 43.7893 44.1576 44.0609C44.4283 44.3326 44.6388 44.6586 44.7754 45.0176C44.912 45.3767 44.9716 45.7607 44.9502 46.1445Z" fill="black"/>
<path d="M69.7285 55.2129C69.7285 62.0143 64.1807 67.4476 57.1741 67.4476C50.1674 67.4476 44.7598 62.0649 44.7598 55.2129C44.7598 48.3609 50.2142 43.0252 57.2208 43.0252C64.2274 43.0252 69.7285 48.4114 69.7285 55.2129ZM51.2023 55.2598C51.2023 58.9457 53.7426 61.592 57.2208 61.592C60.6989 61.592 63.2393 58.8988 63.2393 55.2598C63.2393 51.6208 60.6522 48.8338 57.2208 48.8338C53.7893 48.8338 51.2023 51.527 51.2023 55.2598Z" fill="black"/>
<path d="M71.7514 64.1409C71.4647 63.8984 71.2356 63.5945 71.0808 63.2516C70.926 62.9087 70.8494 62.5354 70.8567 62.1589C70.8538 61.4519 71.1288 60.7723 71.6221 60.2679C72.1153 59.7636 72.7868 59.4753 73.4904 59.4658C74.1677 59.4779 74.8181 59.7341 75.3229 60.1878C76.6883 61.3683 78.3807 62.2672 80.4001 62.2672C81.999 62.2672 83.3644 61.6535 83.3644 60.3286C83.3644 59.2456 82.3763 58.8196 80.9642 58.2023L78.4741 57.1662C74.5217 55.5597 72.1251 53.7149 72.1251 50.0326C72.1251 45.5416 75.7469 42.9929 80.6839 42.9929C83.4578 42.9929 86.1383 43.8882 88.0175 45.4947C88.4751 45.8138 88.8201 46.2706 89.0031 46.7992C89.1861 47.3278 89.1975 47.901 89.0358 48.4366C88.8741 48.9721 88.5476 49.4424 88.1031 49.7798C87.6587 50.1171 87.1192 50.3042 86.5623 50.3142C85.9463 50.2639 85.3582 50.0343 84.8699 49.6535C83.6355 48.759 82.1589 48.2641 80.6372 48.2348C79.1317 48.2348 78.1436 48.7546 78.1436 49.8882C78.1436 50.834 78.8981 51.307 80.5905 51.9676L82.847 52.9135C87.0294 54.6138 89.3829 56.408 89.3829 60.047C89.3829 64.8665 85.3837 67.5091 80.3066 67.5091C77.126 67.555 74.0542 66.3457 71.7514 64.1409Z" fill="black"/>
<path d="M115.57 34.1914V64.2852C115.59 64.7051 115.524 65.1247 115.377 65.518C115.229 65.9114 115.003 66.2702 114.712 66.5723C114.421 66.8744 114.072 67.1134 113.685 67.2745C113.299 67.4356 112.884 67.5155 112.465 67.5091C111.669 67.5021 110.904 67.1907 110.328 66.6382C109.751 66.0858 109.406 65.3336 109.361 64.5343C107.765 66.426 105.279 67.5091 102.264 67.5091C95.7285 67.5091 90.9819 62.361 90.9819 55.2744C90.9819 48.1877 95.7285 43.0397 102.264 43.0397C105.178 43.0397 107.625 44.0794 109.224 45.8267V34.1914C109.213 33.7647 109.288 33.3401 109.444 32.9432C109.601 32.5463 109.835 32.1853 110.134 31.8818C110.432 31.5783 110.789 31.3386 111.182 31.1771C111.576 31.0157 111.997 30.9358 112.422 30.9423C112.844 30.937 113.263 31.0182 113.653 31.1807C114.043 31.3433 114.396 31.5838 114.69 31.8878C114.985 32.1917 115.215 32.5527 115.366 32.9487C115.517 33.3447 115.586 33.7675 115.57 34.1914ZM109.318 55.26C109.318 51.4332 106.921 48.787 103.439 48.787C99.9576 48.787 97.4208 51.5271 97.4208 55.213C97.4208 58.9928 99.9145 61.6859 103.439 61.6859C106.964 61.6859 109.318 59.0867 109.318 55.26Z" fill="black"/>
<path d="M143.643 55.2129C143.643 62.0143 138.095 67.4476 131.089 67.4476C124.082 67.4476 118.674 62.0649 118.674 55.2129C118.674 48.3609 124.129 43.0252 131.135 43.0252C138.142 43.0252 143.643 48.4114 143.643 55.2129ZM125.117 55.2598C125.117 58.9457 127.654 61.592 131.135 61.592C134.617 61.592 137.154 58.8988 137.154 55.2598C137.154 51.6208 134.567 48.8338 131.135 48.8338C127.704 48.8338 125.117 51.527 125.117 55.2598Z" fill="black"/>
<path d="M170.067 46.2382V64.3321C170.067 71.7003 165.601 76 158.03 76C154.221 76 150.693 74.8664 148.012 72.7509C147.626 72.4974 147.306 72.1554 147.077 71.7531C146.848 71.3508 146.718 70.8996 146.697 70.4368C146.694 70.0566 146.766 69.6795 146.909 69.3276C147.052 68.9757 147.264 68.6559 147.532 68.3871C147.799 68.1182 148.117 67.9056 148.468 67.7617C148.818 67.6177 149.193 67.5453 149.572 67.5487C150.186 67.5785 150.777 67.7908 151.271 68.1588C153.081 69.5062 155.274 70.2339 157.527 70.2346C161.429 70.2346 163.732 68.2057 163.732 64.7076V63.4332C162.087 65.2382 159.643 66.2202 156.632 66.2202C150.096 66.2202 145.493 61.4007 145.493 54.5993C145.493 47.7978 150.1 43.0252 156.632 43.0252C159.783 43.0252 162.273 44.1083 163.872 46C163.909 45.198 164.253 44.4413 164.831 43.8872C165.409 43.3331 166.178 43.0244 166.977 43.0252C167.393 43.0214 167.805 43.1027 168.189 43.2643C168.573 43.4258 168.92 43.6641 169.209 43.9647C169.498 44.2653 169.723 44.6219 169.871 45.0128C170.018 45.4037 170.085 45.8206 170.067 46.2382ZM163.811 54.5126C163.811 50.8736 161.508 48.4657 157.936 48.4657C154.365 48.4657 151.918 50.9675 151.918 54.5595C151.918 58.1516 154.455 60.8411 157.936 60.8411C161.418 60.8411 163.811 58.2852 163.811 54.5126Z" fill="#FFD500"/>
<path d="M189.251 46.1445C189.251 47.8448 188.076 49.0326 186.286 49.2131C182.902 49.4513 180.832 51.6715 180.832 55.26V64.2347C180.849 64.6585 180.779 65.0813 180.628 65.4774C180.477 65.8734 180.247 66.2343 179.953 66.5383C179.658 66.8422 179.305 67.0828 178.915 67.2454C178.525 67.4079 178.107 67.489 177.684 67.4838C177.26 67.4903 176.838 67.4104 176.445 67.249C176.051 67.0875 175.695 66.8478 175.396 66.5443C175.097 66.2408 174.863 65.8798 174.706 65.4829C174.55 65.086 174.475 64.6614 174.487 64.2347V46.2383C174.473 45.8168 174.545 45.3969 174.699 45.0042C174.852 44.6115 175.083 44.2541 175.377 43.9537C175.672 43.6533 176.024 43.4161 176.413 43.2565C176.801 43.0969 177.218 43.0183 177.638 43.0253C178.419 43.0205 179.171 43.3177 179.74 43.8554C180.309 44.3931 180.649 45.13 180.692 45.9134C181.397 45.0902 182.27 44.4282 183.251 43.9717C184.232 43.5153 185.299 43.2751 186.38 43.2672C186.762 43.2447 187.145 43.3037 187.503 43.4402C187.861 43.5768 188.186 43.7878 188.457 44.0595C188.728 44.3312 188.939 44.6574 189.076 45.0167C189.213 45.376 189.272 45.7604 189.251 46.1445Z" fill="#FFD500"/>
<path d="M209.89 53.0396V64.2851C209.908 64.6975 209.843 65.1093 209.697 65.4952C209.552 65.8812 209.329 66.2331 209.043 66.5294C208.757 66.8256 208.413 67.0599 208.034 67.2178C207.654 67.3757 207.246 67.4539 206.836 67.4476C206.12 67.4629 205.423 67.2256 204.864 66.7769C204.305 66.3283 203.921 65.6969 203.778 64.9927C202.085 66.5992 199.736 67.4945 196.951 67.4945C192.154 67.4945 188.909 64.6606 188.909 60.5053C188.909 56.3501 192.247 53.7003 197.702 53.7003H203.534V52.6606C203.534 50.0649 201.981 48.5523 199.161 48.5523C197.507 48.5533 195.913 49.1767 194.694 50.2995C193.94 50.8663 193.422 51.0541 192.812 51.0541C192.462 51.0656 192.114 51.0074 191.788 50.8828C191.461 50.7583 191.162 50.5698 190.909 50.3284C190.655 50.087 190.451 49.7974 190.31 49.4764C190.168 49.1554 190.092 48.8094 190.084 48.4584C190.084 47.5595 190.555 46.7111 191.399 45.906C193.376 44.0649 196.43 43.018 199.818 43.018C206.225 43.0252 209.89 46.6606 209.89 53.0396ZM203.544 58.1876V57.906H198.561C196.444 57.906 195.327 58.7075 195.327 60.2671C195.327 61.8266 196.595 62.8194 198.665 62.8194C201.428 62.8158 203.544 60.8338 203.544 58.1876Z" fill="#FFD500"/>
<path d="M250 52.4261V64.2347C250.016 64.6587 249.946 65.0816 249.795 65.4776C249.643 65.8737 249.413 66.2346 249.118 66.5385C248.823 66.8424 248.47 67.0829 248.08 67.2454C247.69 67.4079 247.271 67.489 246.849 67.4838C246.424 67.4903 246.002 67.4104 245.609 67.249C245.216 67.0875 244.859 66.8478 244.56 66.5443C244.262 66.2408 244.027 65.8798 243.871 65.4829C243.714 65.086 243.64 64.6614 243.651 64.2347V53.325C243.651 50.538 242.052 48.7871 239.512 48.7871C236.971 48.7871 235.236 50.5921 235.236 53.1806V64.2347C235.252 64.6587 235.182 65.0816 235.03 65.4776C234.879 65.8737 234.649 66.2346 234.354 66.5385C234.059 66.8424 233.706 67.0829 233.316 67.2454C232.926 67.4079 232.507 67.489 232.084 67.4838C231.66 67.4903 231.238 67.4104 230.845 67.249C230.451 67.0875 230.095 66.8478 229.796 66.5443C229.497 66.2408 229.263 65.8798 229.106 65.4829C228.95 65.086 228.875 64.6614 228.887 64.2347V53.325C228.887 50.538 227.241 48.7871 224.747 48.7871C222.164 48.7871 220.471 50.5921 220.471 53.325V64.2347C220.488 64.6587 220.418 65.0816 220.266 65.4776C220.115 65.8737 219.884 66.2346 219.59 66.5385C219.295 66.8424 218.942 67.0829 218.552 67.2454C218.161 67.4079 217.743 67.489 217.32 67.4838C216.896 67.4903 216.474 67.4104 216.081 67.249C215.687 67.0875 215.331 66.8478 215.032 66.5443C214.733 66.2408 214.499 65.8798 214.342 65.4829C214.186 65.086 214.111 64.6614 214.122 64.2347V46.2383C214.109 45.8168 214.181 45.3969 214.334 45.0042C214.488 44.6115 214.718 44.2541 215.013 43.9537C215.308 43.6533 215.66 43.4161 216.048 43.2565C216.437 43.0969 216.854 43.0183 217.274 43.0253C217.961 43.0213 218.629 43.2532 219.167 43.6825C219.706 44.1118 220.082 44.7129 220.234 45.3863C221.951 43.809 224.211 42.9626 226.537 43.0253C229.544 43.0253 231.926 44.2058 233.446 46.3791C234.432 45.3033 235.632 44.4485 236.969 43.8706C238.306 43.2927 239.749 43.0047 241.204 43.0253C246.612 43.0253 250 46.6607 250 52.4261Z" fill="#FFD500"/>
<path d="M81.2769 2.80879C79.5267 2.80594 77.8347 3.43981 76.5137 4.59322C75.1927 5.74662 74.3319 7.34155 74.0906 9.08315C74.1736 9.16057 74.2366 9.25725 74.2738 9.36474H75.1182V11.0868H74.9278C74.9278 11.1193 74.9529 11.1517 74.9637 11.1842C74.9961 11.2853 74.8523 11.3395 74.7984 11.2564C74.7445 11.1734 74.7337 11.1445 74.7014 11.0868H74.0942C74.2858 12.4688 74.869 13.7663 75.7742 14.8246C76.6794 15.8828 77.8685 16.6571 79.1996 17.0552C80.5307 17.4533 81.9477 17.4583 83.2816 17.0697C84.6155 16.6811 85.8099 15.9152 86.7226 14.8634C87.6352 13.8115 88.2275 12.5182 88.4288 11.1376C88.6301 9.7569 88.432 8.34721 87.8579 7.07659C87.2839 5.80596 86.3583 4.72802 85.1914 3.97131C84.0246 3.2146 82.6657 2.81105 81.2769 2.80879Z" fill="#FFD500"/>
<path d="M81.8337 1.79398e-06C79.8344 0.00522903 77.8899 0.657242 76.2882 1.85949C74.6865 3.06173 73.5127 4.75028 72.9407 6.67509C72.8127 7.12475 72.7179 7.58327 72.6569 8.04693C73.0837 8.30592 73.5252 8.53977 73.9791 8.74729L74.3384 8.93863C74.3658 8.40073 74.4489 7.86716 74.5864 7.34657C75.0704 5.57709 76.1768 4.04406 77.7003 3.03188C79.2238 2.0197 81.061 1.59708 82.8711 1.84244C84.6811 2.08779 86.3412 2.98445 87.5432 4.36608C88.7453 5.74771 89.4078 7.52051 89.4078 9.3556C89.4078 11.1907 88.7453 12.9635 87.5432 14.3451C86.3412 15.7267 84.6811 16.6234 82.8711 16.8688C81.061 17.1141 79.2238 16.6915 77.7003 15.6793C76.1768 14.6671 75.0704 13.1341 74.5864 11.3646C74.4386 10.8298 74.3506 10.2801 74.3241 9.72563C73.752 9.93773 73.2262 10.2589 72.7754 10.6715C72.7459 10.7009 72.7084 10.721 72.6676 10.7292C72.7482 11.2965 72.8818 11.855 73.0665 12.3971C73.6265 14.0153 74.6191 15.4473 75.9354 16.5363C77.2517 17.6253 78.841 18.3292 80.529 18.5709C82.2171 18.8126 83.9388 18.5828 85.5055 17.9066C87.0722 17.2304 88.4234 16.134 89.4111 14.7374C90.3987 13.3409 90.9846 11.6982 91.1047 9.98922C91.2248 8.28029 90.8743 6.57113 90.0917 5.04905C89.3091 3.52696 88.1246 2.25069 86.668 1.36009C85.2114 0.469491 83.5389 -0.0010603 81.8337 1.79398e-06Z" fill="black"/>
<path d="M84.4388 13.1915L84.852 14.177C84.907 14.2853 84.9392 14.4037 84.9467 14.5249C84.9543 14.6462 84.937 14.7677 84.8959 14.882C84.8548 14.9963 84.7908 15.1009 84.7079 15.1893C84.625 15.2777 84.5249 15.3481 84.4138 15.3962C84.3027 15.4442 84.183 15.4688 84.0621 15.4684C83.9412 15.4681 83.8216 15.4428 83.7108 15.3942C83.6 15.3456 83.5003 15.2746 83.4178 15.1857C83.3354 15.0968 83.272 14.9919 83.2315 14.8774L82.8004 13.8521C81.9238 14.0482 81.0058 13.8996 80.2349 13.4369C80.0885 13.3571 79.9675 13.2374 79.8859 13.0915C79.8043 12.9456 79.7653 12.7795 79.7736 12.6123C79.7819 12.4452 79.837 12.2838 79.9326 12.1467C80.0282 12.0096 80.1604 11.9025 80.3139 11.8377C80.5326 11.7474 80.7779 11.7474 80.9966 11.8377C81.3101 12.0047 81.657 12.0986 82.0116 12.1124C82.3662 12.1261 82.7193 12.0594 83.0447 11.9171C83.7202 11.6319 84.1226 11.1445 83.8999 10.5922C83.6986 10.1048 83.1812 10.0723 82.4375 10.0832L81.3595 10.1373C79.9402 10.1987 78.7868 9.7763 78.2946 8.59579C77.8023 7.41529 78.273 6.26727 79.3042 5.50554L78.9018 4.54886C78.8513 4.4406 78.8231 4.32321 78.8188 4.20372C78.8145 4.08423 78.8343 3.96511 78.877 3.8535C78.9197 3.74189 78.9843 3.64008 79.0671 3.55418C79.1499 3.46828 79.2491 3.40006 79.3587 3.35361C79.4684 3.30716 79.5863 3.28343 79.7053 3.28385C79.8243 3.28427 79.942 3.30883 80.0513 3.35605C80.1606 3.40328 80.2593 3.4722 80.3415 3.55868C80.4237 3.64516 80.4876 3.74742 80.5295 3.85933L80.9212 4.78713C81.7015 4.63039 82.512 4.77751 83.1884 5.19868C83.3598 5.29364 83.496 5.44183 83.5765 5.62106C83.6257 5.72715 83.6531 5.84213 83.6571 5.95912C83.6611 6.0761 83.6415 6.19269 83.5996 6.3019C83.5576 6.41111 83.4942 6.51069 83.4131 6.59469C83.3319 6.67868 83.2347 6.74536 83.1273 6.79074C83.0186 6.83632 82.902 6.85978 82.7842 6.85978C82.6664 6.85978 82.5498 6.83632 82.4411 6.79074C82.1932 6.65714 81.9188 6.5807 81.6379 6.56696C81.357 6.55323 81.0765 6.60254 80.817 6.71132C80.3211 6.92431 79.8971 7.3142 80.1199 7.84128C80.3067 8.28532 80.7666 8.33587 81.4098 8.32142L82.5956 8.24561C84.1909 8.17341 85.2365 8.64272 85.718 9.79435C86.2642 11.1265 85.6785 12.4008 84.4388 13.1915Z" fill="black"/>
<path d="M74.5289 9.48735L74.3169 9.53428C72.2149 10.0722 70.7453 12.1083 70.1165 14.2274C69.4661 16.3935 69.5092 18.7112 69.2434 20.9639C68.8122 24.574 67.5402 28.1191 65.2909 30.9711C61.6331 35.6642 55.5355 38.1191 49.6212 37.8303C46.5239 37.6787 43.4158 36.7942 40.8791 35.0036C37.7279 32.7509 35.6403 29.2419 34.3827 25.5632C38.5076 25.6245 42.0756 22.8628 45.3094 20.2852C47.8606 18.2491 50.6704 16.13 53.933 15.4982C57.0446 14.8953 60.3252 16.0289 62.111 18.7473C64.3818 22.1841 63.1673 26.5018 60.6737 29.426C58.3777 32.1263 54.8816 33.491 51.3818 33.4404C49.7956 33.3815 48.2245 33.1083 46.7108 32.6281C46.2257 32.4874 45.7442 32.3429 45.2735 32.1877C45.1534 32.1443 45.0257 32.1263 44.8983 32.1348C44.771 32.1433 44.6467 32.1781 44.5334 32.237C44.4201 32.296 44.3201 32.3779 44.2397 32.4775C44.1593 32.5771 44.1002 32.6923 44.0662 32.8159C44.0365 32.9254 44.0287 33.0398 44.0434 33.1523C44.0581 33.2649 44.095 33.3734 44.1518 33.4715C44.2087 33.5696 44.2844 33.6554 44.3746 33.7238C44.4647 33.7922 44.5676 33.8419 44.677 33.87C50.4261 35.6318 57.5549 35.6751 61.8451 30.7906C63.9039 28.4585 65.3412 25.1877 65.043 22.0289C64.9322 20.4781 64.4124 18.9849 63.5372 17.7026C62.662 16.4204 61.4628 15.3954 60.0629 14.7328C58.7826 14.0859 57.385 13.7065 55.9547 13.6178C54.5243 13.5291 53.0909 13.7328 51.7412 14.2166C51.5831 14.2744 51.4214 14.3429 51.2669 14.4115C52.2334 11.7834 53.5701 9.24187 55.5247 7.24187C57.4794 5.24187 60.106 3.80504 62.8943 3.66425C65.6825 3.52345 68.5966 4.78699 70.0806 7.16605C70.2372 7.47444 70.4651 7.7406 70.7453 7.94223C71.038 8.07484 71.3549 8.14492 71.6759 8.148C72.745 8.27618 73.7451 8.74564 74.5289 9.48735Z" fill="black"/>
<path d="M69.9584 8.85549C69.8398 10.4439 69.847 12.1046 70.501 13.5486C72.1502 12.8266 73.3072 11.2851 74.899 10.4512C75.1541 10.3176 75.4487 10.1696 75.517 9.88798C75.534 9.75716 75.5211 9.62419 75.4794 9.4991C75.4377 9.37401 75.3682 9.26009 75.2763 9.16596C74.6687 8.39277 73.8605 7.80311 72.9407 7.46198C72.4705 7.28513 71.9785 7.17339 71.4783 7.12985C71.1477 7.10458 70.6519 7.03599 70.4003 7.29231C70.0231 7.64971 69.9943 8.38256 69.9584 8.85549Z" fill="#FFD500"/>
<path d="M76.8357 8.84106C76.0847 8.34648 75.3661 7.75803 74.5684 7.34648C74.3586 7.23551 74.1427 7.13668 73.9217 7.05045C73.5947 6.92049 73.2641 6.79774 72.9336 6.68944L72.4233 6.4981C72.064 6.36453 71.676 6.3898 71.3957 5.97464C70.6461 4.87175 69.6649 3.9475 68.5212 3.26706C67.2972 2.52646 65.9254 2.06665 64.504 1.92049C62.8321 1.76027 61.1459 1.98625 59.5743 2.58114C58.4953 2.97573 57.4703 3.5058 56.5237 4.15875C55.3538 4.939 54.298 5.87948 53.3869 6.95298C52.5583 7.9387 51.8356 9.00963 51.231 10.1479C50.7279 11.0938 50.2824 12.0685 49.8584 13.036C49.5638 13.7328 49.341 14.4584 49.111 15.1732C49.0434 15.3505 48.9163 15.4986 48.7517 15.592C47.8965 16.1588 47.0198 16.6967 46.2078 17.3176C45.1694 18.1118 44.2028 19.0035 43.1716 19.8122C41.3084 21.3523 39.1812 22.5377 36.8943 23.3104C35.8799 23.6599 34.8156 23.8416 33.7432 23.8483C33.5779 23.8483 33.4162 23.8483 33.2545 23.8483C32.4784 23.9458 32.155 24.3862 32.3742 25.1407C32.5934 25.8952 32.8161 26.5522 33.0928 27.2382C33.7262 28.8748 34.541 30.4345 35.5218 31.888C36.73 33.7063 38.2654 35.282 40.0491 36.5342C42.982 38.4886 46.4254 39.5262 49.9446 39.5161C50.0605 39.5013 50.1777 39.53 50.2738 39.5966C50.37 39.6632 50.4383 39.7631 50.4656 39.8772C50.9288 41.0731 51.4938 42.2266 52.1544 43.3248L52.8192 44.4078C52.1688 44.675 51.5292 44.9241 50.9004 45.2057C50.5949 45.3351 50.3055 45.4999 50.0381 45.6967C49.7506 45.9169 49.7758 46.4187 50.0381 46.7797C50.1652 46.9402 50.3409 47.0548 50.5386 47.1063C50.7363 47.1577 50.9452 47.1432 51.134 47.0649C52.1448 46.5038 53.2355 46.102 54.3678 45.8735C55.2829 45.6959 56.2081 45.5753 57.1381 45.5125C58.1372 45.4337 59.1422 45.4761 60.1312 45.6389C61.3349 45.8555 62.4775 46.1912 63.3902 47.0829C63.4765 47.1852 63.5894 47.2614 63.7163 47.3028C63.8432 47.3443 63.9791 47.3494 64.1088 47.3176C64.2552 47.282 64.389 47.2066 64.4955 47.0996C64.602 46.9926 64.677 46.8582 64.7125 46.7111C64.7798 46.5343 64.7933 46.3413 64.751 46.1567C64.7088 45.9722 64.6128 45.8045 64.4753 45.675C63.918 45.1556 63.2633 44.7531 62.5494 44.4909C61.6379 44.117 60.6743 43.8868 59.6928 43.8086C59.4713 43.791 59.2559 43.7266 59.0609 43.6196C58.8658 43.5126 58.6955 43.3654 58.561 43.1876C57.5001 41.9344 56.7141 40.4706 56.2542 38.8916C56.4087 38.8411 56.5309 38.7869 56.6638 38.758C57.8195 38.4746 58.9403 38.0629 60.0054 37.5306C61.4716 36.7927 62.8394 35.872 64.0765 34.7905C66.963 32.2995 69.0696 29.0219 70.1417 25.3537C70.8978 22.7727 71.3063 20.1015 71.3562 17.4115C71.3576 16.3907 71.5313 15.3775 71.87 14.4151C72.1283 13.6701 72.5424 12.9894 73.0845 12.4187C73.3671 12.1334 73.689 11.8902 74.0402 11.6967C74.2271 11.5884 74.3996 11.4909 74.6008 11.4006C75.2655 11.0757 75.9554 10.805 76.6417 10.5125C76.8066 10.4534 76.953 10.3514 77.0659 10.217C77.1789 10.0826 77.2544 9.92047 77.2849 9.7472C77.3205 9.56751 77.2958 9.381 77.2145 9.21699C77.1332 9.05297 76.9999 8.92074 76.8357 8.84106ZM56.5704 43.5414C56.5991 43.5847 56.6279 43.6353 56.6638 43.7003L55.3236 43.8735C55.2602 43.868 55.1965 43.868 55.1331 43.8735C54.5762 43.9963 54.7163 43.9818 54.4145 43.5667C53.5664 42.3399 52.844 41.03 52.2586 39.6569C52.2359 39.5958 52.2179 39.5331 52.2047 39.4692C52.9233 39.379 53.6025 39.2995 54.2852 39.2021C54.3119 39.194 54.34 39.1918 54.3677 39.1957C54.3953 39.1995 54.4218 39.2093 54.4454 39.2244C54.4689 39.2395 54.4889 39.2595 54.5041 39.283C54.5192 39.3066 54.5291 39.3332 54.5331 39.3609C54.8275 40.349 55.2262 41.3027 55.7224 42.2057C55.9991 42.675 56.2937 43.1046 56.5704 43.5414ZM74.3169 9.5342C72.2149 10.0721 70.7453 12.1082 70.1165 14.2273C69.4662 16.3934 69.5093 18.7111 69.2434 20.9638C68.8122 24.5739 67.5403 28.119 65.2909 30.971C61.6331 35.6642 55.5356 38.119 49.6213 37.8302C46.524 37.6786 43.4159 36.7941 40.8791 35.0035C37.728 32.7508 35.6403 29.2418 34.3827 25.5631C38.5077 25.6245 42.0757 22.8627 45.3095 20.2851C47.8606 18.249 50.6705 16.1299 53.933 15.4981C57.0447 14.8952 60.3252 16.0288 62.111 18.7472C64.3819 22.184 63.1674 26.5017 60.6738 29.4259C58.3777 32.1263 54.8816 33.4909 51.3819 33.4403C49.7956 33.3814 48.2245 33.1082 46.7108 32.6281C46.2257 32.4873 45.7443 32.3429 45.2736 32.1876C45.1535 32.1442 45.0257 32.1262 44.8984 32.1347C44.771 32.1432 44.6468 32.178 44.5335 32.237C44.4201 32.2959 44.3201 32.3778 44.2397 32.4774C44.1593 32.577 44.1003 32.6922 44.0663 32.8158C44.0365 32.9253 44.0288 33.0397 44.0435 33.1523C44.0582 33.2648 44.095 33.3733 44.1519 33.4714C44.2087 33.5695 44.2844 33.6553 44.3746 33.7237C44.4648 33.7921 44.5676 33.8418 44.6771 33.8699C50.4261 35.6317 57.5549 35.675 61.8451 30.7905C63.904 28.4584 65.3413 25.1876 65.043 22.0288C64.9322 20.478 64.4125 18.9848 63.5373 17.7025C62.6621 16.4203 61.4629 15.3953 60.0629 14.7328C58.7827 14.0858 57.3851 13.7065 55.9547 13.6177C54.5244 13.529 53.091 13.7327 51.7412 14.2165C51.5831 14.2743 51.4214 14.3429 51.2669 14.4115C52.2335 11.7833 53.5701 9.24179 55.5248 7.24179C57.4795 5.24179 60.106 3.80496 62.8943 3.66417C65.6826 3.52338 68.5966 4.78691 70.0806 7.16597C70.2373 7.47436 70.4652 7.74052 70.7453 7.94215C71.038 8.07476 71.3549 8.14484 71.676 8.14792C72.7434 8.27207 73.7432 8.73638 74.5289 9.47283L74.3169 9.5342Z" fill="black"/>
<path d="M66.6096 9.38636C66.6068 9.57693 66.5665 9.76505 66.491 9.93989C66.4155 10.1147 66.3063 10.2728 66.1696 10.405C66.033 10.5373 65.8717 10.641 65.695 10.7103C65.5183 10.7796 65.3296 10.813 65.14 10.8087C64.8563 10.8023 64.5808 10.7116 64.3483 10.5481C64.1158 10.3846 63.9367 10.1556 63.8336 9.89002C63.7304 9.6244 63.7078 9.33405 63.7686 9.05556C63.8295 8.77706 63.971 8.52289 64.1754 8.32508C64.3797 8.12727 64.6378 7.99467 64.9171 7.94401C65.1964 7.89334 65.4843 7.92687 65.7446 8.04036C66.0049 8.15386 66.226 8.34225 66.3799 8.58178C66.5339 8.82131 66.6138 9.10127 66.6096 9.38636Z" fill="white"/>
<path d="M49.8585 33.538C47.88 33.5432 45.9322 33.0466 44.1957 32.094C44.0885 32.0364 43.9937 31.958 43.9168 31.8634C43.8399 31.7687 43.7825 31.6597 43.7478 31.5426C43.7131 31.4256 43.7019 31.3027 43.7148 31.1813C43.7276 31.0598 43.7643 30.9421 43.8227 30.835C43.8812 30.7278 43.9601 30.6334 44.0551 30.5571C44.1501 30.4809 44.2592 30.4243 44.376 30.3906C44.4929 30.3569 44.6153 30.3469 44.736 30.3611C44.8568 30.3752 44.9736 30.4133 45.0796 30.4731C46.817 31.4173 48.7917 31.8296 50.7597 31.659C52.7278 31.4883 54.6029 30.7422 56.1536 29.5128C59.3875 26.9857 61.3206 22.2926 60.99 17.8449C60.9813 17.7238 60.9964 17.6021 61.0345 17.4868C61.0725 17.3716 61.1328 17.265 61.2119 17.1731C61.291 17.0813 61.3873 17.006 61.4953 16.9515C61.6034 16.897 61.721 16.8645 61.8416 16.8557C61.9622 16.847 62.0833 16.8621 62.198 16.9004C62.3127 16.9386 62.4188 16.9992 62.5102 17.0787C62.6016 17.1581 62.6766 17.2549 62.7308 17.3634C62.785 17.472 62.8174 17.5902 62.8261 17.7113C63.2034 22.8377 61.0295 28.0435 57.2819 30.9713C55.1606 32.6329 52.5483 33.5362 49.8585 33.538Z" fill="white"/>
</svg>
