<svg width="60" height="48" viewBox="0 0 60 48" fill="none" xmlns="http://www.w3.org/2000/svg">
<path d="M49.2769 2.80879C47.5267 2.80594 45.8347 3.43981 44.5137 4.59322C43.1927 5.74662 42.3319 7.34155 42.0906 9.08315C42.1736 9.16057 42.2366 9.25725 42.2738 9.36474H43.1182V11.0868H42.9278C42.9278 11.1193 42.9529 11.1517 42.9637 11.1842C42.9961 11.2853 42.8523 11.3395 42.7984 11.2564C42.7445 11.1734 42.7337 11.1445 42.7014 11.0868H42.0942C42.2858 12.4688 42.869 13.7663 43.7742 14.8246C44.6794 15.8828 45.8685 16.6571 47.1996 17.0552C48.5307 17.4533 49.9477 17.4583 51.2816 17.0697C52.6155 16.6811 53.8099 15.9152 54.7226 14.8634C55.6352 13.8115 56.2275 12.5182 56.4288 11.1376C56.6301 9.7569 56.432 8.34721 55.8579 7.07659C55.2839 5.80596 54.3583 4.72802 53.1914 3.97131C52.0246 3.2146 50.6657 2.81105 49.2769 2.80879Z" fill="#FFD500"/>
<path d="M49.8337 1.79398e-06C47.8344 0.00522903 45.8899 0.657242 44.2882 1.85949C42.6865 3.06173 41.5127 4.75028 40.9407 6.67509C40.8127 7.12475 40.7179 7.58327 40.6569 8.04693C41.0837 8.30592 41.5252 8.53977 41.9791 8.74729L42.3384 8.93863C42.3658 8.40073 42.4489 7.86716 42.5864 7.34657C43.0704 5.57709 44.1768 4.04406 45.7003 3.03188C47.2238 2.0197 49.061 1.59708 50.8711 1.84244C52.6811 2.08779 54.3412 2.98445 55.5432 4.36608C56.7453 5.74771 57.4078 7.52051 57.4078 9.3556C57.4078 11.1907 56.7453 12.9635 55.5432 14.3451C54.3412 15.7267 52.6811 16.6234 50.8711 16.8688C49.061 17.1141 47.2238 16.6915 45.7003 15.6793C44.1768 14.6671 43.0704 13.1341 42.5864 11.3646C42.4386 10.8298 42.3506 10.2801 42.3241 9.72563C41.752 9.93773 41.2262 10.2589 40.7754 10.6715C40.7459 10.7009 40.7084 10.721 40.6676 10.7292C40.7482 11.2965 40.8818 11.855 41.0665 12.3971C41.6265 14.0153 42.6191 15.4473 43.9354 16.5363C45.2517 17.6253 46.841 18.3292 48.529 18.5709C50.2171 18.8126 51.9388 18.5828 53.5055 17.9066C55.0722 17.2304 56.4234 16.134 57.4111 14.7374C58.3987 13.3409 58.9846 11.6982 59.1047 9.98922C59.2248 8.28029 58.8743 6.57113 58.0917 5.04905C57.3091 3.52696 56.1246 2.25069 54.668 1.36009C53.2114 0.469491 51.5389 -0.0010603 49.8337 1.79398e-06Z" fill="black"/>
<path d="M52.4388 13.1915L52.852 14.177C52.907 14.2853 52.9392 14.4037 52.9467 14.5249C52.9543 14.6462 52.937 14.7677 52.8959 14.882C52.8548 14.9963 52.7908 15.1009 52.7079 15.1893C52.625 15.2777 52.5249 15.3481 52.4138 15.3962C52.3027 15.4442 52.183 15.4688 52.0621 15.4684C51.9412 15.4681 51.8216 15.4428 51.7108 15.3942C51.6 15.3456 51.5003 15.2746 51.4178 15.1857C51.3354 15.0968 51.272 14.9919 51.2315 14.8774L50.8004 13.8521C49.9238 14.0482 49.0058 13.8996 48.2349 13.4369C48.0885 13.3571 47.9675 13.2374 47.8859 13.0915C47.8043 12.9456 47.7653 12.7795 47.7736 12.6123C47.7819 12.4452 47.837 12.2838 47.9326 12.1467C48.0282 12.0096 48.1604 11.9025 48.3139 11.8377C48.5326 11.7474 48.7779 11.7474 48.9966 11.8377C49.3101 12.0047 49.657 12.0986 50.0116 12.1124C50.3662 12.1261 50.7193 12.0594 51.0447 11.9171C51.7202 11.6319 52.1226 11.1445 51.8999 10.5922C51.6986 10.1048 51.1812 10.0723 50.4375 10.0832L49.3595 10.1373C47.9402 10.1987 46.7868 9.7763 46.2946 8.59579C45.8023 7.41529 46.273 6.26727 47.3042 5.50554L46.9018 4.54886C46.8513 4.4406 46.8231 4.32321 46.8188 4.20372C46.8145 4.08423 46.8343 3.96511 46.877 3.8535C46.9197 3.74189 46.9843 3.64008 47.0671 3.55418C47.1499 3.46828 47.2491 3.40006 47.3587 3.35361C47.4684 3.30716 47.5863 3.28343 47.7053 3.28385C47.8243 3.28427 47.942 3.30883 48.0513 3.35605C48.1606 3.40328 48.2593 3.4722 48.3415 3.55868C48.4237 3.64516 48.4876 3.74742 48.5295 3.85933L48.9212 4.78713C49.7015 4.63039 50.512 4.77751 51.1884 5.19868C51.3598 5.29364 51.496 5.44183 51.5765 5.62106C51.6257 5.72715 51.6531 5.84213 51.6571 5.95912C51.6611 6.0761 51.6415 6.19269 51.5996 6.3019C51.5576 6.41111 51.4942 6.51069 51.4131 6.59469C51.3319 6.67868 51.2347 6.74536 51.1273 6.79074C51.0186 6.83632 50.902 6.85978 50.7842 6.85978C50.6664 6.85978 50.5498 6.83632 50.4411 6.79074C50.1932 6.65714 49.9188 6.5807 49.6379 6.56696C49.357 6.55323 49.0765 6.60254 48.817 6.71132C48.3211 6.92431 47.8971 7.3142 48.1199 7.84128C48.3067 8.28532 48.7666 8.33587 49.4098 8.32142L50.5956 8.24561C52.1909 8.17341 53.2365 8.64272 53.718 9.79435C54.2642 11.1265 53.6785 12.4008 52.4388 13.1915Z" fill="black"/>
<path d="M42.5289 9.48735L42.3169 9.53428C40.2149 10.0722 38.7453 12.1083 38.1165 14.2274C37.4661 16.3935 37.5092 18.7112 37.2434 20.9639C36.8122 24.574 35.5402 28.1191 33.2909 30.9711C29.6331 35.6642 23.5355 38.1191 17.6212 37.8303C14.5239 37.6787 11.4158 36.7942 8.87909 35.0036C5.7279 32.7509 3.64029 29.2419 2.38269 25.5632C6.50762 25.6245 10.0756 22.8628 13.3094 20.2852C15.8606 18.2491 18.6704 16.13 21.933 15.4982C25.0446 14.8953 28.3252 16.0289 30.111 18.7473C32.3818 22.1841 31.1673 26.5018 28.6737 29.426C26.3777 32.1263 22.8816 33.491 19.3818 33.4404C17.7956 33.3815 16.2245 33.1083 14.7108 32.6281C14.2257 32.4874 13.7442 32.3429 13.2735 32.1877C13.1534 32.1443 13.0257 32.1263 12.8983 32.1348C12.771 32.1433 12.6467 32.1781 12.5334 32.237C12.4201 32.296 12.3201 32.3779 12.2397 32.4775C12.1593 32.5771 12.1002 32.6923 12.0662 32.8159C12.0365 32.9254 12.0287 33.0398 12.0434 33.1523C12.0581 33.2649 12.095 33.3734 12.1518 33.4715C12.2087 33.5696 12.2844 33.6554 12.3746 33.7238C12.4647 33.7922 12.5676 33.8419 12.677 33.87C18.4261 35.6318 25.5549 35.6751 29.8451 30.7906C31.9039 28.4585 33.3412 25.1877 33.043 22.0289C32.9322 20.4781 32.4124 18.9849 31.5372 17.7026C30.662 16.4204 29.4628 15.3954 28.0629 14.7328C26.7826 14.0859 25.385 13.7065 23.9547 13.6178C22.5243 13.5291 21.0909 13.7328 19.7412 14.2166C19.5831 14.2744 19.4214 14.3429 19.2669 14.4115C20.2334 11.7834 21.5701 9.24187 23.5247 7.24187C25.4794 5.24187 28.106 3.80504 30.8943 3.66425C33.6825 3.52345 36.5966 4.78699 38.0806 7.16605C38.2372 7.47444 38.4651 7.7406 38.7453 7.94223C39.038 8.07484 39.3549 8.14492 39.6759 8.148C40.745 8.27618 41.7451 8.74564 42.5289 9.48735Z" fill="black"/>
<path d="M37.9584 8.85549C37.8398 10.4439 37.847 12.1046 38.501 13.5486C40.1502 12.8266 41.3072 11.2851 42.899 10.4512C43.1541 10.3176 43.4487 10.1696 43.517 9.88798C43.534 9.75716 43.5211 9.62419 43.4794 9.4991C43.4377 9.37401 43.3682 9.26009 43.2763 9.16596C42.6687 8.39277 41.8605 7.80311 40.9407 7.46198C40.4705 7.28513 39.9785 7.17339 39.4783 7.12985C39.1477 7.10458 38.6519 7.03599 38.4003 7.29231C38.0231 7.64971 37.9943 8.38256 37.9584 8.85549Z" fill="#FFD500"/>
<path d="M44.8357 8.84106C44.0847 8.34648 43.3661 7.75803 42.5684 7.34648C42.3586 7.23551 42.1427 7.13668 41.9217 7.05045C41.5947 6.92049 41.2641 6.79774 40.9336 6.68944L40.4233 6.4981C40.064 6.36453 39.676 6.3898 39.3957 5.97464C38.6461 4.87175 37.6649 3.9475 36.5212 3.26706C35.2972 2.52646 33.9254 2.06665 32.504 1.92049C30.8321 1.76027 29.1459 1.98625 27.5743 2.58114C26.4953 2.97573 25.4703 3.5058 24.5237 4.15875C23.3538 4.939 22.298 5.87948 21.3869 6.95298C20.5583 7.9387 19.8356 9.00963 19.231 10.1479C18.7279 11.0938 18.2824 12.0685 17.8584 13.036C17.5638 13.7328 17.341 14.4584 17.111 15.1732C17.0434 15.3505 16.9163 15.4986 16.7517 15.592C15.8965 16.1588 15.0198 16.6967 14.2078 17.3176C13.1694 18.1118 12.2028 19.0035 11.1716 19.8122C9.30843 21.3523 7.18116 22.5377 4.89435 23.3104C3.87987 23.6599 2.81562 23.8416 1.74316 23.8483C1.57788 23.8483 1.41619 23.8483 1.2545 23.8483C0.478377 23.9458 0.154992 24.3862 0.374174 25.1407C0.593355 25.8952 0.81613 26.5522 1.0928 27.2382C1.72622 28.8748 2.54101 30.4345 3.52177 31.888C4.72997 33.7063 6.26539 35.282 8.04913 36.5342C10.982 38.4886 14.4254 39.5262 17.9446 39.5161C18.0605 39.5013 18.1777 39.53 18.2738 39.5966C18.37 39.6632 18.4383 39.7631 18.4656 39.8772C18.9288 41.0731 19.4938 42.2266 20.1544 43.3248L20.8192 44.4078C20.1688 44.675 19.5292 44.9241 18.9004 45.2057C18.5949 45.3351 18.3055 45.4999 18.0381 45.6967C17.7506 45.9169 17.7758 46.4187 18.0381 46.7797C18.1652 46.9402 18.3409 47.0548 18.5386 47.1063C18.7363 47.1577 18.9452 47.1432 19.134 47.0649C20.1448 46.5038 21.2355 46.102 22.3678 45.8735C23.2829 45.6959 24.2081 45.5753 25.1381 45.5125C26.1372 45.4337 27.1422 45.4761 28.1312 45.6389C29.3349 45.8555 30.4775 46.1912 31.3902 47.0829C31.4765 47.1852 31.5894 47.2614 31.7163 47.3028C31.8432 47.3443 31.9791 47.3494 32.1088 47.3176C32.2552 47.282 32.389 47.2066 32.4955 47.0996C32.602 46.9926 32.677 46.8582 32.7125 46.7111C32.7798 46.5343 32.7933 46.3413 32.751 46.1567C32.7088 45.9722 32.6128 45.8045 32.4753 45.675C31.918 45.1556 31.2633 44.7531 30.5494 44.4909C29.6379 44.117 28.6743 43.8868 27.6928 43.8086C27.4713 43.791 27.2559 43.7266 27.0609 43.6196C26.8658 43.5126 26.6955 43.3654 26.561 43.1876C25.5001 41.9344 24.7141 40.4706 24.2542 38.8916C24.4087 38.8411 24.5309 38.7869 24.6638 38.758C25.8195 38.4746 26.9403 38.0629 28.0054 37.5306C29.4716 36.7927 30.8394 35.872 32.0765 34.7905C34.963 32.2995 37.0696 29.0219 38.1417 25.3537C38.8978 22.7727 39.3063 20.1015 39.3562 17.4115C39.3576 16.3907 39.5313 15.3775 39.87 14.4151C40.1283 13.6701 40.5424 12.9894 41.0845 12.4187C41.3671 12.1334 41.689 11.8902 42.0402 11.6967C42.2271 11.5884 42.3996 11.4909 42.6008 11.4006C43.2655 11.0757 43.9554 10.805 44.6417 10.5125C44.8066 10.4534 44.953 10.3514 45.0659 10.217C45.1789 10.0826 45.2544 9.92047 45.2849 9.7472C45.3205 9.56751 45.2958 9.381 45.2145 9.21699C45.1332 9.05297 44.9999 8.92074 44.8357 8.84106ZM24.5704 43.5414C24.5991 43.5847 24.6279 43.6353 24.6638 43.7003L23.3236 43.8735C23.2602 43.868 23.1965 43.868 23.1331 43.8735C22.5762 43.9963 22.7163 43.9818 22.4145 43.5667C21.5664 42.3399 20.844 41.03 20.2586 39.6569C20.2359 39.5958 20.2179 39.5331 20.2047 39.4692C20.9233 39.379 21.6025 39.2995 22.2852 39.2021C22.3119 39.194 22.34 39.1918 22.3677 39.1957C22.3953 39.1995 22.4218 39.2093 22.4454 39.2244C22.4689 39.2395 22.4889 39.2595 22.5041 39.283C22.5192 39.3066 22.5291 39.3332 22.5331 39.3609C22.8275 40.349 23.2262 41.3027 23.7224 42.2057C23.9991 42.675 24.2937 43.1046 24.5704 43.5414ZM42.3169 9.5342C40.2149 10.0721 38.7453 12.1082 38.1165 14.2273C37.4662 16.3934 37.5093 18.7111 37.2434 20.9638C36.8122 24.5739 35.5403 28.119 33.2909 30.971C29.6331 35.6642 23.5356 38.119 17.6213 37.8302C14.524 37.6786 11.4159 36.7941 8.87914 35.0035C5.72795 32.7508 3.64034 29.2418 2.38274 25.5631C6.50767 25.6245 10.0757 22.8627 13.3095 20.2851C15.8606 18.249 18.6705 16.1299 21.933 15.4981C25.0447 14.8952 28.3252 16.0288 30.111 18.7472C32.3819 22.184 31.1674 26.5017 28.6738 29.4259C26.3777 32.1263 22.8816 33.4909 19.3819 33.4403C17.7956 33.3814 16.2245 33.1082 14.7108 32.6281C14.2257 32.4873 13.7443 32.3429 13.2736 32.1876C13.1535 32.1442 13.0257 32.1262 12.8984 32.1347C12.771 32.1432 12.6468 32.178 12.5335 32.237C12.4201 32.2959 12.3201 32.3778 12.2397 32.4774C12.1593 32.577 12.1003 32.6922 12.0663 32.8158C12.0365 32.9253 12.0288 33.0397 12.0435 33.1523C12.0582 33.2648 12.095 33.3733 12.1519 33.4714C12.2087 33.5695 12.2844 33.6553 12.3746 33.7237C12.4648 33.7921 12.5676 33.8418 12.6771 33.8699C18.4261 35.6317 25.5549 35.675 29.8451 30.7905C31.904 28.4584 33.3413 25.1876 33.043 22.0288C32.9322 20.478 32.4125 18.9848 31.5373 17.7025C30.6621 16.4203 29.4629 15.3953 28.0629 14.7328C26.7827 14.0858 25.3851 13.7065 23.9547 13.6177C22.5244 13.529 21.091 13.7327 19.7412 14.2165C19.5831 14.2743 19.4214 14.3429 19.2669 14.4115C20.2335 11.7833 21.5701 9.24179 23.5248 7.24179C25.4795 5.24179 28.106 3.80496 30.8943 3.66417C33.6826 3.52338 36.5966 4.78691 38.0806 7.16597C38.2373 7.47436 38.4652 7.74052 38.7453 7.94215C39.038 8.07476 39.3549 8.14484 39.676 8.14792C40.7434 8.27207 41.7432 8.73638 42.5289 9.47283L42.3169 9.5342Z" fill="black"/>
<path d="M34.6096 9.38636C34.6068 9.57693 34.5665 9.76505 34.491 9.93989C34.4155 10.1147 34.3063 10.2728 34.1696 10.405C34.033 10.5373 33.8717 10.641 33.695 10.7103C33.5183 10.7796 33.3296 10.813 33.14 10.8087C32.8563 10.8023 32.5808 10.7116 32.3483 10.5481C32.1158 10.3846 31.9367 10.1556 31.8336 9.89002C31.7304 9.6244 31.7078 9.33405 31.7686 9.05556C31.8295 8.77706 31.971 8.52289 32.1754 8.32508C32.3797 8.12727 32.6378 7.99467 32.9171 7.94401C33.1964 7.89334 33.4843 7.92687 33.7446 8.04036C34.0049 8.15386 34.226 8.34225 34.3799 8.58178C34.5339 8.82131 34.6138 9.10127 34.6096 9.38636Z" fill="white"/>
<path d="M17.8585 33.538C15.88 33.5432 13.9322 33.0466 12.1957 32.094C12.0885 32.0364 11.9937 31.958 11.9168 31.8634C11.8399 31.7687 11.7825 31.6597 11.7478 31.5426C11.7131 31.4256 11.7019 31.3027 11.7148 31.1813C11.7276 31.0598 11.7643 30.9421 11.8227 30.835C11.8812 30.7278 11.9601 30.6334 12.0551 30.5571C12.1501 30.4809 12.2592 30.4243 12.376 30.3906C12.4929 30.3569 12.6153 30.3469 12.736 30.3611C12.8568 30.3752 12.9736 30.4133 13.0796 30.4731C14.817 31.4173 16.7917 31.8296 18.7597 31.659C20.7278 31.4883 22.6029 30.7422 24.1536 29.5128C27.3875 26.9857 29.3206 22.2926 28.99 17.8449C28.9813 17.7238 28.9964 17.6021 29.0345 17.4868C29.0725 17.3716 29.1328 17.265 29.2119 17.1731C29.291 17.0813 29.3873 17.006 29.4953 16.9515C29.6034 16.897 29.721 16.8645 29.8416 16.8557C29.9622 16.847 30.0833 16.8621 30.198 16.9004C30.3127 16.9386 30.4188 16.9992 30.5102 17.0787C30.6016 17.1581 30.6766 17.2549 30.7308 17.3634C30.785 17.472 30.8174 17.5902 30.8261 17.7113C31.2034 22.8377 29.0295 28.0435 25.2819 30.9713C23.1606 32.6329 20.5483 33.5362 17.8585 33.538Z" fill="white"/>
</svg>
