<svg width="20" height="20" viewBox="0 0 20 20" fill="none" xmlns="http://www.w3.org/2000/svg">
<path d="M4.16667 5.83333H5C5.21887 5.83333 5.4356 5.79022 5.63781 5.70647C5.84001 5.62271 6.02375 5.49994 6.17851 5.34518C6.33328 5.19041 6.45604 5.00668 6.5398 4.80447C6.62356 4.60226 6.66667 4.38554 6.66667 4.16667C6.66667 3.94565 6.75446 3.73369 6.91074 3.57741C7.06702 3.42113 7.27899 3.33333 7.5 3.33333H12.5C12.721 3.33333 12.933 3.42113 13.0893 3.57741C13.2455 3.73369 13.3333 3.94565 13.3333 4.16667C13.3333 4.60869 13.5089 5.03262 13.8215 5.34518C14.134 5.65774 14.558 5.83333 15 5.83333H15.8333C16.2754 5.83333 16.6993 6.00893 17.0118 6.32149C17.3244 6.63405 17.5 7.05797 17.5 7.5V15C17.5 15.442 17.3244 15.866 17.0118 16.1785C16.6993 16.4911 16.2754 16.6667 15.8333 16.6667H4.16667C3.72464 16.6667 3.30072 16.4911 2.98816 16.1785C2.67559 15.866 2.5 15.442 2.5 15V7.5C2.5 7.05797 2.67559 6.63405 2.98816 6.32149C3.30072 6.00893 3.72464 5.83333 4.16667 5.83333Z" stroke="#8B8B8B" stroke-width="1.5" stroke-linecap="round" stroke-linejoin="round"/>
<path d="M10 13.3333C11.3807 13.3333 12.5 12.214 12.5 10.8333C12.5 9.45261 11.3807 8.33332 10 8.33332C8.61929 8.33332 7.5 9.45261 7.5 10.8333C7.5 12.214 8.61929 13.3333 10 13.3333Z" stroke="#8B8B8B" stroke-width="1.5" stroke-linecap="round" stroke-linejoin="round"/>
</svg>
