<svg width="32" height="32" viewBox="0 0 32 32" fill="none" xmlns="http://www.w3.org/2000/svg">
<path d="M18.7088 24.4854L16.8576 27.5708C16.7687 27.7189 16.643 27.8414 16.4928 27.9265C16.3425 28.0116 16.1727 28.0563 16.0001 28.0563C15.8274 28.0563 15.6576 28.0116 15.5074 27.9265C15.3571 27.8414 15.2314 27.7189 15.1426 27.5708L13.2914 24.4854C13.2025 24.3374 13.0768 24.2148 12.9266 24.1297C12.7763 24.0447 12.6066 23.9999 12.4339 23.9999H5.00006C4.73484 23.9999 4.48049 23.8946 4.29295 23.7071C4.10542 23.5195 4.00006 23.2652 4.00006 22.9999V7C4.00006 6.73478 4.10542 6.48043 4.29295 6.29289C4.48049 6.10536 4.73484 6 5.00006 6H27.0001C27.2653 6 27.5196 6.10536 27.7072 6.29289C27.8947 6.48043 28.0001 6.73478 28.0001 7V23C28.0001 23.1313 27.9742 23.2614 27.9239 23.3827C27.8737 23.504 27.8 23.6143 27.7072 23.7071C27.6143 23.8 27.5041 23.8736 27.3827 23.9239C27.2614 23.9741 27.1314 24 27.0001 24L19.5663 23.9999C19.3936 23.9999 19.2238 24.0447 19.0736 24.1297C18.9233 24.2148 18.7976 24.3374 18.7088 24.4854Z" stroke="black" stroke-width="2" stroke-linecap="round" stroke-linejoin="round"/>
<path d="M16 16.5C16.8284 16.5 17.5 15.8284 17.5 15C17.5 14.1716 16.8284 13.5 16 13.5C15.1716 13.5 14.5 14.1716 14.5 15C14.5 15.8284 15.1716 16.5 16 16.5Z" fill="black"/>
<path d="M10 16.5C10.8284 16.5 11.5 15.8284 11.5 15C11.5 14.1716 10.8284 13.5 10 13.5C9.17157 13.5 8.5 14.1716 8.5 15C8.5 15.8284 9.17157 16.5 10 16.5Z" fill="black"/>
<path d="M22 16.5C22.8284 16.5 23.5 15.8284 23.5 15C23.5 14.1716 22.8284 13.5 22 13.5C21.1716 13.5 20.5 14.1716 20.5 15C20.5 15.8284 21.1716 16.5 22 16.5Z" fill="black"/>
</svg>
